<svg height="148.5mm" preserveAspectRatio="none" version="1.1" viewBox="0 0 210 297" width="105.0mm" xmlns="http://www.w3.org/2000/svg"><path d="M 6.90,4.00 l 196.00,0.00 a 2.90,2.90,0,0,1,2.90,2.90 l 0.00,283.00 a 2.90,2.90,0,0,1,-2.90,2.90 l -196.00,0.00 a 2.90,2.90,0,0,1,-2.90,-2.90 l 0.00,-283.00 a 2.90,2.90,0,0,1,2.90,-2.90 M 38.90,36.00 l 4.67,0.00 a 2.90,2.90,0,0,1,2.90,2.90 l 0.00,9.42 a 2.90,2.90,0,0,1,-2.90,2.90 l -4.67,0.00 a 2.90,2.90,0,0,1,-2.90,-2.90 l 0.00,-9.42 a 2.90,2.90,0,0,1,2.90,-2.90 M 57.37,36.00 l 0.83,0.00 a 2.90,2.90,0,0,1,2.90,2.90 l 0.00,9.42 a 2.90,2.90,0,0,1,-2.90,2.90 l -0.83,0.00 a 2.90,2.90,0,0,1,-2.90,-2.90 l 0.00,-9.42 a 2.90,2.90,0,0,1,2.90,-2.90 M 88.00,36.00 l 83.10,0.00 a 2.90,2.90,0,0,1,2.90,2.90 l 0.00,9.42 a 2.90,2.90,0,0,1,-2.90,2.90 l -83.10,0.00 a 2.90,2.90,0,0,1,-2.90,-2.90 l 0.00,-9.42 a 2.90,2.90,0,0,1,2.90,-2.90 M 38.90,91.22 l 132.20,0.00 a 2.90,2.90,0,0,1,2.90,2.90 l 0.00,93.38 a 2.90,2.90,0,0,1,-2.90,2.90 l -132.20,0.00 a 2.90,2.90,0,0,1,-2.90,-2.90 l 0.00,-93.38 a 2.90,2.90,0,0,1,2.90,-2.90 M 38.90,246.40 l 62.65,0.00 a 2.90,2.90,0,0,1,2.90,2.90 l 0.00,8.80 a 2.90,2.90,0,0,1,-2.90,2.90 l -62.65,0.00 a 2.90,2.90,0,0,1,-2.90,-2.90 l 0.00,-8.80 a 2.90,2.90,0,0,1,2.90,-2.90 M 147.35,246.40 l 3.79,0.00 a 2.90,2.90,0,0,1,2.90,2.90 l 0.00,8.80 a 2.90,2.90,0,0,1,-2.90,2.90 l -3.79,0.00 a 2.90,2.90,0,0,1,-2.90,-2.90 l 0.00,-8.80 a 2.90,2.90,0,0,1,2.90,-2.90 M 164.94,246.40 l 6.16,0.00 a 2.90,2.90,0,0,1,2.90,2.90 l 0.00,8.80 a 2.90,2.90,0,0,1,-2.90,2.90 l -6.16,0.00 a 2.90,2.90,0,0,1,-2.90,-2.90 l 0.00,-8.80 a 2.90,2.90,0,0,1,2.90,-2.90 " style="stroke-width:0.1; stroke:#ff0000; fill:none" /></svg>