<svg height="148.5mm" preserveAspectRatio="none" version="1.1" viewBox="0 0 210 297" width="105.0mm" xmlns="http://www.w3.org/2000/svg"><path d="M 6.90,4.00 l 196.00,0.00 a 2.90,2.90,0,0,1,2.90,2.90 l 0.00,283.00 a 2.90,2.90,0,0,1,-2.90,2.90 l -196.00,0.00 a 2.90,2.90,0,0,1,-2.90,-2.90 l 0.00,-283.00 a 2.90,2.90,0,0,1,2.90,-2.90 M 30.90,28.00 l 35.30,0.00 a 2.90,2.90,0,0,1,2.90,2.90 l 0.00,25.42 a 2.90,2.90,0,0,1,-2.90,2.90 l -35.30,0.00 a 2.90,2.90,0,0,1,-2.90,-2.90 l 0.00,-25.42 a 2.90,2.90,0,0,1,2.90,-2.90 M 80.00,28.00 l 99.10,0.00 a 2.90,2.90,0,0,1,2.90,2.90 l 0.00,25.42 a 2.90,2.90,0,0,1,-2.90,2.90 l -99.10,0.00 a 2.90,2.90,0,0,1,-2.90,-2.90 l 0.00,-25.42 a 2.90,2.90,0,0,1,2.90,-2.90 M 30.90,83.22 l 148.20,0.00 a 2.90,2.90,0,0,1,2.90,2.90 l 0.00,109.38 a 2.90,2.90,0,0,1,-2.90,2.90 l -148.20,0.00 a 2.90,2.90,0,0,1,-2.90,-2.90 l 0.00,-109.38 a 2.90,2.90,0,0,1,2.90,-2.90 M 30.90,238.40 l 78.65,0.00 a 2.90,2.90,0,0,1,2.90,2.90 l 0.00,24.80 a 2.90,2.90,0,0,1,-2.90,2.90 l -78.65,0.00 a 2.90,2.90,0,0,1,-2.90,-2.90 l 0.00,-24.80 a 2.90,2.90,0,0,1,2.90,-2.90 M 139.35,238.40 l 39.75,0.00 a 2.90,2.90,0,0,1,2.90,2.90 l 0.00,24.80 a 2.90,2.90,0,0,1,-2.90,2.90 l -39.75,0.00 a 2.90,2.90,0,0,1,-2.90,-2.90 l 0.00,-24.80 a 2.90,2.90,0,0,1,2.90,-2.90 " style="stroke-width:0.1; stroke:#ff0000; fill:none" /></svg>