<svg height="148.5mm" preserveAspectRatio="none" version="1.1" viewBox="0 0 210 297" width="105.0mm" xmlns="http://www.w3.org/2000/svg"><path d="M 6.90,4.00 l 196.00,0.00 a 2.90,2.90,0,0,1,2.90,2.90 l 0.00,283.00 a 2.90,2.90,0,0,1,-2.90,2.90 l -196.00,0.00 a 2.90,2.90,0,0,1,-2.90,-2.90 l 0.00,-283.00 a 2.90,2.90,0,0,1,2.90,-2.90 M 22.90,20.00 l 164.20,0.00 a 2.90,2.90,0,0,1,2.90,2.90 l 0.00,41.42 a 2.90,2.90,0,0,1,-2.90,2.90 l -164.20,0.00 a 2.90,2.90,0,0,1,-2.90,-2.90 l 0.00,-41.42 a 2.90,2.90,0,0,1,2.90,-2.90 M 22.90,75.22 l 164.20,0.00 a 2.90,2.90,0,0,1,2.90,2.90 l 0.00,125.38 a 2.90,2.90,0,0,1,-2.90,2.90 l -164.20,0.00 a 2.90,2.90,0,0,1,-2.90,-2.90 l 0.00,-125.38 a 2.90,2.90,0,0,1,2.90,-2.90 M 22.90,230.40 l 94.65,0.00 a 2.90,2.90,0,0,1,2.90,2.90 l 0.00,40.80 a 2.90,2.90,0,0,1,-2.90,2.90 l -94.65,0.00 a 2.90,2.90,0,0,1,-2.90,-2.90 l 0.00,-40.80 a 2.90,2.90,0,0,1,2.90,-2.90 M 131.35,230.40 l 55.75,0.00 a 2.90,2.90,0,0,1,2.90,2.90 l 0.00,40.80 a 2.90,2.90,0,0,1,-2.90,2.90 l -55.75,0.00 a 2.90,2.90,0,0,1,-2.90,-2.90 l 0.00,-40.80 a 2.90,2.90,0,0,1,2.90,-2.90 " style="stroke-width:0.1; stroke:#ff0000; fill:none" /></svg>